# xmcd
#
# Track frame offsets:
#	150
#	20820
#	39347
#	57743
#	77965
#	96055
#	116232
#	132322
#	151689
#	168727
#	186843
#
# Disc length: 2759 seconds
#
# Revision: 1
# Processed by: cddbd v1.5PL3 Copyright (c) Steve Scherf et al.
# Submitted via: audiograbber 1.83.01
#
DISCID=970ac50b
DTITLE=La Nueva Patrulla 15 - Mas Allá...
DYEAR=1900
DGENRE=
TTITLE0=La Temperatura
TTITLE1=Un Hombre Busca Una Mujer
TTITLE2=Sabré Olvidar
TTITLE3=Que Se Valla Pa'l...
TTITLE4=Perdoname
TTITLE5=La Paga
TTITLE6=Ojalá
TTITLE7=Algo Veo En Ti
TTITLE8=El Yanikeke
TTITLE9=Perrengue
TTITLE10=Que Se Valla Pa'l... (Version Underground)
EXTD=
EXTT0=
EXTT1=
EXTT2=
EXTT3=
EXTT4=
EXTT5=
EXTT6=
EXTT7=
EXTT8=
EXTT9=
EXTT10=
PLAYORDER=
